# 3ds Max Wavefront OBJ Exporter v0.97b - (c)2007 guruware
# File Created: 23.08.2015 05:33:28

mtllib Derby, Subway.mtl

#
# object Layer0_001
#

v  -237.0308 162.2674 274.3227
v  -236.3140 168.7544 275.3905
v  -498.1577 168.7544 -114.6134
v  -240.5419 162.3386 269.0932
v  -247.7250 162.1319 258.3943
v  -272.5231 162.1319 221.4586
v  -274.4997 162.1781 218.5146
v  -281.7416 162.1781 207.7281
v  -283.7628 162.2340 204.7176
v  -329.7015 163.6310 136.2940
v  -331.8956 163.5468 133.0261
v  -334.6030 161.9332 128.9936
v  -337.6255 158.0100 124.4916
v  -339.1507 154.1586 122.2200
v  -339.4658 152.3999 121.7506
v  -346.4425 152.3999 111.3592
v  -351.9288 152.3999 103.1876
v  -453.1698 152.3999 -47.6061
v  -458.6561 152.3999 -55.7777
v  -498.1577 152.3999 -114.6134
v  -292.5410 162.2340 191.6430
v  -295.7955 162.2340 186.7955
v  -323.5590 162.0833 145.4430
v  -326.6872 162.5651 140.7838
v  -323.9077 160.2168 144.9238
v  -293.5970 160.4454 190.0701
v  -292.5410 158.4440 191.6430
v  -284.5788 152.3999 203.5023
v  -275.4092 152.3999 217.1599
v  -243.1014 161.2276 265.2809
v  -245.1784 158.3230 262.1873
v  -247.7250 152.3999 258.3943
v  82.5136 279.3970 -504.4688
v  -82.5137 168.7544 504.4688
v  498.1576 279.3970 114.6134
v  -82.5137 152.3999 504.4688
v  208.1833 207.7901 309.2985
v  498.1576 263.0426 114.6134
v  82.5136 263.0426 -504.4688
v  -122.0152 152.3999 445.6331
v  -127.5015 152.3999 437.4615
v  -228.7425 152.3999 286.6678
v  -229.0209 152.3999 286.2531
v  392.3714 0.0000 100.2804
v  400.5431 0.0000 94.7941
v  400.5431 251.9696 94.7941
v  172.7676 0.0000 247.7196
v  168.6818 0.0000 250.4628
v  164.5960 0.0000 253.2060
v  -55.0079 0.0000 400.6452
v  -63.1795 0.0000 406.1316
v  12.2152 113.1561 355.5125
v  12.2152 160.4002 355.5125
v  -20.4713 160.4002 377.4578
v  -30.1410 160.4273 383.9499
v  -60.2126 160.4273 404.1396
v  -63.1795 163.6107 406.1316
v  -60.2126 113.1561 404.1396
v  -20.4713 113.1561 377.4578
v  -30.1410 113.1561 383.9499
v  -16.3017 113.1561 383.6682
v  16.3848 113.1561 361.7229
v  16.3848 160.4002 361.7229
v  -16.3017 160.4002 383.6682
v  -56.0430 113.1561 410.3500
v  -25.9714 113.1561 390.1604
v  -25.9714 160.4273 390.1604
v  -56.0430 160.4273 410.3500
v  395.0567 0.0000 86.6224
v  63.9022 251.9696 -406.6168
v  288.3294 0.0000 -72.3429
v  282.8431 0.0000 -80.5145
v  181.6021 0.0000 -231.3082
v  176.1158 0.0000 -239.4798
v  69.3885 0.0000 -398.4451
v  63.9022 0.0000 -406.6168
v  -399.8204 163.6107 -95.2793
v  -68.6658 0.0000 397.9599
v  -169.9068 0.0000 247.1662
v  -175.3931 0.0000 238.9946
v  -287.6068 0.0000 71.8577
v  -293.0931 0.0000 63.6861
v  -394.3341 0.0000 -87.1076
v  -399.8204 0.0000 -95.2793
v  -391.6488 0.0000 -100.7656
v  -172.0450 0.0000 -248.2048
v  -167.9591 0.0000 -250.9480
v  -163.8733 0.0000 -253.6912
v  55.7305 0.0000 -401.1304
v  -228.5703 151.3893 286.9243
v  -228.7539 151.1257 286.6508
v  -240.2316 139.5495 269.5554
v  -234.2288 152.3999 278.4962
v  -241.1035 141.3196 268.2567
v  -243.2413 137.9304 265.0726
v  -245.9505 129.8275 261.0373
v  -295.3995 114.6802 187.3853
v  -245.2955 127.7784 262.0129
v  -244.9254 114.6802 262.5642
v  -243.3610 116.1097 264.8943
v  -243.3236 126.0504 264.9499
v  -242.5212 122.8126 266.1450
v  -242.5212 118.8756 266.1450
v  -295.3995 119.8140 187.3853
v  -298.2817 115.5643 183.0925
v  -299.5027 114.6802 181.2738
v  -314.4255 117.0424 159.0470
v  -314.4255 114.6802 159.0470
v  -316.1397 115.2824 156.4938
v  -318.8627 113.7555 152.4380
v  -324.3488 113.8397 144.2667
v  -326.8539 115.2962 140.5354
v  -328.8381 120.6760 137.5800
v  -328.1970 117.3246 138.5350
v  -331.3152 116.2115 133.8905
v  -333.4933 114.3444 130.6464
v  -336.5425 113.6691 126.1047
v  -339.8233 137.4701 121.2181
v  -342.2155 114.7657 117.6552
v  -350.4721 129.0535 105.3573
v  -343.2770 109.1756 116.0741
v  -339.8233 145.7378 121.2181
v  -353.4139 129.0535 107.3324
v  -342.7651 137.4701 123.1932
v  -346.2188 109.1756 118.0492
v  -345.1573 114.7657 119.6302
v  -248.2372 127.7784 263.9880
v  -248.8923 129.8275 263.0124
v  -246.1830 137.9304 267.0477
v  -244.0453 141.3196 270.2318
v  -243.1733 139.5495 271.5304
v  -342.7651 145.7378 123.1932
v  -342.4076 152.3999 123.7257
v  -231.6957 151.1257 288.6259
v  -339.4843 113.6691 128.0798
v  -336.4351 114.3444 132.6214
v  -334.2570 116.2115 135.8656
v  -331.7800 120.6760 139.5551
v  -331.1388 117.3246 140.5100
v  -329.7957 115.2962 142.5105
v  -327.2906 113.8397 146.2418
v  -321.8044 113.7555 154.4131
v  -319.0815 115.2824 158.4689
v  -317.3673 117.0424 161.0221
v  -317.3673 114.6802 161.0221
v  -302.4445 114.6802 183.2489
v  -301.2234 115.5643 185.0675
v  -298.3413 119.8140 189.3604
v  -298.3413 114.6802 189.3604
v  -247.8671 114.6802 264.5393
v  -246.3027 116.1097 266.8694
v  -245.4630 118.8756 268.1201
v  -245.4630 122.8126 268.1201
v  -246.2654 126.0504 266.9250
v  -231.5120 151.3893 288.8994
v  -239.2557 168.7544 277.3656
v  -239.9726 162.2674 276.2978
v  -243.4836 162.3386 271.0683
v  -246.0432 161.2276 267.2559
v  -248.1202 158.3230 264.1624
v  -250.6667 152.3999 260.3694
v  -278.3511 152.3999 219.1349
v  -275.4650 162.1319 223.4337
v  -250.6667 162.1319 260.3694
v  -284.6834 162.1781 209.7032
v  -277.4415 162.1781 220.4897
v  -287.5206 152.3999 205.4774
v  -295.4827 158.4440 193.6181
v  -295.4827 162.2340 193.6181
v  -286.7046 162.2340 206.6927
v  -296.5388 160.4454 192.0452
v  -298.7372 162.2340 188.7706
v  -326.5009 162.0833 147.4181
v  -326.8494 160.2168 146.8988
v  -329.6290 162.5651 142.7588
v  -332.6433 163.6310 138.2691
v  -334.8373 163.5468 135.0012
v  -337.5448 161.9332 130.9687
v  -340.5673 158.0100 126.4667
v  -342.0925 154.1586 124.1950
v  -187.8906 207.7557 -280.2446
v  -192.6978 207.0550 -279.4582
v  -183.8549 208.5247 -282.9540
v  -411.4999 165.1486 -130.1161
v  -419.5712 163.6107 -124.6971
v  44.1514 251.9696 -436.0346
v  36.0801 250.4317 -430.6157
v  98.4450 257.5061 -417.9533
v  92.9587 257.5061 -426.1249
v  429.5996 257.5061 75.2859
v  424.1133 257.5061 67.1143
v  317.3859 257.5061 -91.8510
v  311.8996 257.5061 -100.0227
v  210.6586 257.5061 -250.8164
v  205.1723 257.5061 -258.9880
v  192.4682 208.5591 277.1712
v  188.4325 207.7901 279.8806
v  184.3969 207.0212 282.5901
v  420.2938 251.9696 124.2119
v  412.2226 250.4317 129.6309
v  -35.3575 165.1486 430.1305
v  -43.4287 163.6107 435.5494
# 202 vertices

vn -0.8302 0.0000 0.5574
vn -0.1297 0.9877 0.0871
vn 0.5574 -0.0000 0.8302
vn -0.5574 0.0000 -0.8302
vn 0.8302 -0.0000 -0.5574
vn 0.0000 -1.0000 0.0000
vn 0.8302 0.0000 -0.5574
vn 0.0000 1.0000 -0.0000
vn -0.5574 -0.0000 -0.8302
vn -0.2247 0.9151 -0.3347
vn -0.4675 -0.5446 -0.6963
vn 0.5276 -0.3225 0.7859
vn 0.4835 0.4975 0.7202
vn 0.4780 -0.5144 0.7120
vn 0.3691 -0.7493 0.5498
vn -0.4177 -0.6622 -0.6221
vn -0.5548 0.0958 -0.8264
vn 0.2732 -0.8717 0.4069
vn -0.0597 -0.9942 -0.0889
vn 0.0683 -0.9925 0.1017
vn 0.2403 -0.9023 0.3580
vn 0.3951 -0.7055 0.5884
vn -0.5272 -0.3246 -0.7853
vn -0.3590 -0.7650 -0.5347
vn -0.1718 -0.9513 -0.2560
vn -0.0048 -1.0000 -0.0071
vn 0.1663 -0.9545 0.2477
vn 0.2769 -0.8679 0.4124
vn -0.0000 -1.0000 0.0000
vn 0.2086 -0.9273 0.3107
vn 0.3539 -0.7725 0.5272
vn 0.2530 -0.8911 0.3768
vn 0.4895 -0.4783 0.7291
vn 0.5574 0.0000 0.8302
vn 0.5093 0.4062 0.7586
vn 0.2447 0.8985 0.3644
vn -0.8302 -0.0000 0.5574
vn 0.3482 -0.7809 0.5186
vn 0.4353 0.6247 0.6483
vn -0.4921 0.4697 -0.7330
vn -0.5468 0.1945 -0.8144
vn 0.0063 0.9999 0.0094
vn -0.1311 0.9720 -0.1952
vn -0.3427 0.7887 -0.5104
vn -0.4414 0.6108 -0.6574
vn 0.5498 -0.1646 0.8189
vn -0.4944 0.4617 -0.7364
vn 0.2302 0.9107 0.3429
vn -0.0017 1.0000 -0.0025
vn -0.5285 0.3177 -0.7872
vn 0.2375 0.9047 0.3537
vn 0.1078 0.9811 0.1606
vn -0.0119 0.9998 -0.0178
vn -0.1757 0.9490 -0.2617
vn -0.3267 0.8102 -0.4867
vn -0.4544 0.5792 -0.6768
vn -0.5307 0.3060 -0.7904
vn 0.5513 -0.1472 0.8212
vn 0.4048 0.6874 0.6030
vn -0.7528 -0.4216 0.5054
vn -0.5495 -0.1681 -0.8184
vn -0.1364 -0.1611 -0.9775
vn -0.5274 -0.1674 -0.8330
vn -0.5167 -0.2115 -0.8296
vn -0.5450 -0.2098 -0.8118
vn -0.5520 -0.1393 -0.8221
vn -0.5334 -0.1401 -0.8342
vn 0.8227 -0.1347 -0.5523
vn 0.5713 -0.1674 0.8035
vn 0.5495 -0.1681 0.8184
vn 0.5714 -0.1687 0.8032
vn 0.5701 -0.1392 0.8097
vn 0.5519 -0.1401 0.8220
vn 0.5722 -0.2096 0.7928
vn 0.5448 -0.2117 0.8114
vn 0.1297 -0.9877 -0.0871
# 76 vertex normals

vt 0.3912 0.5888 0.0000
vt 0.3958 0.6123 0.0000
vt -1.3087 0.6123 0.0000
vt 0.3683 0.5891 0.0000
vt 0.3216 0.5883 0.0000
vt 0.1601 0.5883 0.0000
vt 0.1473 0.5885 0.0000
vt 0.1001 0.5885 0.0000
vt 0.0870 0.5887 0.0000
vt -0.2121 0.5937 0.0000
vt -0.2264 0.5934 0.0000
vt -0.2440 0.5876 0.0000
vt -0.2637 0.5734 0.0000
vt -0.2736 0.5594 0.0000
vt -0.2756 0.5530 0.0000
vt -0.3211 0.5530 0.0000
vt -0.3568 0.5530 0.0000
vt -1.0158 0.5530 0.0000
vt -1.0515 0.5530 0.0000
vt -1.3087 0.5530 0.0000
vt 0.0298 0.5887 0.0000
vt 0.0086 0.5887 0.0000
vt -0.1721 0.5881 0.0000
vt -0.1925 0.5899 0.0000
vt -0.1744 0.5814 0.0000
vt 0.0230 0.5822 0.0000
vt 0.0298 0.5749 0.0000
vt 0.0817 0.5530 0.0000
vt 0.1413 0.5530 0.0000
vt 0.3517 0.5850 0.0000
vt 0.3381 0.5745 0.0000
vt 0.3216 0.5530 0.0000
vt -1.3087 -0.0846 0.0000
vt -1.3087 -2.6540 0.0000
vt 0.3958 -2.6540 0.0000
vt 1.3970 -2.6540 0.0000
vt 1.3970 -0.0846 0.0000
vt -2.7839 0.6123 0.0000
vt -2.7839 0.5530 0.0000
vt -1.5134 0.7540 0.0000
vt -0.2460 1.0138 0.0000
vt -0.2460 0.9545 0.0000
vt 0.2460 0.9545 0.0000
vt 2.7839 0.5530 0.0000
vt 2.7839 0.6123 0.0000
vt 0.2460 1.0138 0.0000
vt 1.3087 1.0138 0.0000
vt -1.3970 1.0138 0.0000
vt -1.3970 0.9545 0.0000
vt 1.3087 0.9545 0.0000
vt 1.3970 0.5530 0.0000
vt 1.3970 0.6123 0.0000
vt 1.1399 0.5530 0.0000
vt 1.1042 0.5530 0.0000
vt 0.4451 0.5530 0.0000
vt 0.4433 0.5530 0.0000
vt 0.9687 0.0168 0.0000
vt 0.9857 0.0167 0.0000
vt 0.9857 0.9513 0.0000
vt 0.5113 0.0179 0.0000
vt 0.5028 0.0179 0.0000
vt 0.4943 0.0179 0.0000
vt 0.0369 0.0190 0.0000
vt 0.0199 0.0190 0.0000
vt 0.1769 0.4384 0.0000
vt 0.1769 0.6136 0.0000
vt 0.1089 0.6137 0.0000
vt 0.0887 0.6139 0.0000
vt 0.0261 0.6140 0.0000
vt 0.0199 0.6259 0.0000
vt 0.0261 0.4387 0.0000
vt 0.1089 0.4385 0.0000
vt 0.0887 0.4386 0.0000
vt 0.1737 0.4384 0.0000
vt 0.1737 0.6136 0.0000
vt 0.0849 0.4386 0.0000
vt 0.0849 0.6139 0.0000
vt 0.0000 0.0000 0.0000
vt -0.0000 1.0000 0.0000
vt 0.0163 -0.0000 0.0000
vt 1.0000 1.0000 0.0000
vt 0.3333 -0.0000 0.0000
vt 0.3496 -0.0000 0.0000
vt 0.6504 -0.0000 0.0000
vt 0.6667 -0.0000 0.0000
vt 0.9837 -0.0000 0.0000
vt 1.0000 -0.0000 0.0000
vt 1.0000 0.0000 0.0000
vt 0.0125 0.9890 0.0000
vt 0.9836 0.0001 0.0000
vt 0.6834 0.0017 0.0000
vt 0.6672 0.0018 0.0000
vt 0.3381 0.0035 0.0000
vt 0.3221 0.0036 0.0000
vt 0.0284 0.0051 0.0000
vt 0.0125 0.0052 0.0000
vt 0.9805 0.0054 0.0000
vt 0.9981 0.0054 0.0000
vt 0.9981 0.6152 0.0000
vt 0.5078 0.0054 0.0000
vt 0.4990 0.0054 0.0000
vt 0.4902 0.0054 0.0000
vt 0.0176 0.0054 0.0000
vt -0.0000 0.0054 0.0000
vt -0.0000 0.9445 0.0000
vt 0.1306 0.1339 0.0000
vt 0.0853 0.1511 0.0000
vt 0.1550 0.1445 0.0000
vt 0.1724 0.1738 0.0000
vt 0.1922 0.2440 0.0000
vt 0.1973 0.1913 0.0000
vt 0.2081 0.1594 0.0000
vt 0.2281 0.1365 0.0000
vt 0.2719 0.1352 0.0000
vt 0.2937 0.1592 0.0000
vt 0.3074 0.1869 0.0000
vt 0.3074 0.1498 0.0000
vt 0.4267 0.1498 0.0000
vt 0.4365 0.1637 0.0000
vt 0.4595 0.2305 0.0000
vt 0.4595 0.1498 0.0000
vt 0.8630 0.1498 0.0000
vt 0.8755 0.1722 0.0000
vt 0.8822 0.2157 0.0000
vt 0.8822 0.2776 0.0000
vt 0.8758 0.3285 0.0000
vt 0.8601 0.3557 0.0000
vt 0.9923 0.7228 0.0000
vt 0.9938 0.7270 0.0000
vt 0.9319 1.0000 0.0000
vt 0.9261 0.8980 0.0000
vt 0.9006 0.5408 0.0000
vt 0.8981 0.8991 0.0000
vt 0.8936 0.5686 0.0000
vt 0.8776 0.8817 0.0000
vt 0.8765 0.5153 0.0000
vt 0.8610 0.8360 0.0000
vt 0.8548 0.3879 0.0000
vt 0.8406 0.7428 0.0000
vt 0.6193 0.7428 0.0000
vt 0.6424 0.8959 0.0000
vt 0.8406 0.8959 0.0000
vt 0.5687 0.8966 0.0000
vt 0.6266 0.8966 0.0000
vt 0.5460 0.7428 0.0000
vt 0.4824 0.8379 0.0000
vt 0.4824 0.8975 0.0000
vt 0.5525 0.8975 0.0000
vt 0.4739 0.8694 0.0000
vt 0.4564 0.8975 0.0000
vt 0.2344 0.8951 0.0000
vt 0.2316 0.8658 0.0000
vt 0.2094 0.9027 0.0000
vt 0.1853 0.9194 0.0000
vt 0.1678 0.9181 0.0000
vt 0.1461 0.8927 0.0000
vt 0.1219 0.8311 0.0000
vt 0.1044 0.5081 0.0000
vt 0.1098 0.7705 0.0000
vt 0.1072 0.7428 0.0000
vt 0.1044 0.6381 0.0000
vt 0.0192 0.3758 0.0000
vt 0.0768 0.0632 0.0000
# 163 texture coords

g Layer0_001
usemtl wire_006134006
s off
f 1/1/1 2/2/1 3/3/1 4/4/1 
f 5/5/1 4/4/1 3/3/1 6/6/1 
f 7/7/1 6/6/1 3/3/1 8/8/1 
f 9/9/1 8/8/1 3/3/1 10/10/1 
f 11/11/1 10/10/1 3/3/1 12/12/1 
f 13/13/1 12/12/1 3/3/1 14/14/1 
f 15/15/1 14/14/1 3/3/1 16/16/1 
f 17/17/1 16/16/1 3/3/1 18/18/1 
f 19/19/1 18/18/1 3/3/1 20/20/1 
f 21/21/1 9/9/1 10/10/1 22/22/1 
f 23/23/1 22/22/1 10/10/1 24/24/1 
f 23/23/1 24/24/1 25/25/1 
f 21/21/1 22/22/1 26/26/1 27/27/1 
f 28/28/1 8/8/1 9/9/1 
f 29/29/1 6/6/1 7/7/1 
f 30/30/1 4/4/1 5/5/1 31/31/1 
f 32/32/1 31/31/1 5/5/1 
f 33/33/2 3/34/2 2/35/2 34/36/2 
f 33/33/2 34/36/2 35/37/2 
f 34/38/3 36/39/3 37/40/3 35/41/3 
f 35/41/3 37/40/3 38/42/3 
f 39/43/4 20/44/4 3/45/4 33/46/4 
f 33/47/5 35/48/5 38/49/5 39/50/5 
f 36/51/1 34/52/1 2/2/1 40/53/1 
f 41/54/1 40/53/1 2/2/1 42/55/1 
f 42/55/1 2/2/1 43/56/1 
f 44/57/3 45/58/3 46/59/3 47/60/3 
f 48/61/3 47/60/3 46/59/3 49/62/3 
f 50/63/3 49/62/3 46/59/3 51/64/3 
f 52/65/3 51/64/3 46/59/3 53/66/3 
f 54/67/3 53/66/3 46/59/3 55/68/3 
f 56/69/3 55/68/3 46/59/3 57/70/3 
f 58/71/3 56/69/3 57/70/3 51/64/3 
f 58/71/3 51/64/3 52/65/3 59/72/3 
f 60/73/3 58/71/3 59/72/3 54/67/3 
f 60/73/3 54/67/3 55/68/3 
f 61/72/3 62/74/3 63/75/3 64/67/3 
f 65/71/3 66/76/3 67/77/3 68/69/3 
f 59/78/1 61/78/1 64/78/1 54/78/1 
f 61/78/6 59/78/6 52/78/6 62/78/6 
f 63/78/7 62/78/7 52/78/7 53/78/7 
f 53/78/8 54/78/8 64/78/8 63/78/8 
f 67/78/7 66/78/7 60/78/7 55/78/7 
f 55/78/8 56/78/8 68/78/8 67/78/8 
f 65/78/1 68/78/1 56/78/1 58/78/1 
f 65/78/6 58/78/6 60/78/6 66/78/6 
f 46/79/5 45/78/5 69/80/5 70/81/5 
f 70/81/5 69/80/5 71/82/5 72/83/5 
f 70/81/5 72/83/5 73/84/5 74/85/5 
f 70/81/5 74/85/5 75/86/5 76/87/5 
f 51/88/1 57/81/1 77/89/1 78/90/1 
f 79/91/1 78/90/1 77/89/1 80/92/1 
f 81/93/1 80/92/1 77/89/1 82/94/1 
f 83/95/1 82/94/1 77/89/1 84/96/1 
f 85/97/9 84/98/9 77/99/9 86/100/9 
f 87/101/9 86/100/9 77/99/9 88/102/9 
f 89/103/9 88/102/9 77/99/9 76/104/9 
f 76/104/9 77/99/9 70/105/9 
f 43/78/5 90/78/5 91/78/5 92/78/5 
f 93/78/5 43/78/5 92/78/5 94/78/5 
f 32/78/5 93/78/5 94/78/5 95/78/5 
f 32/78/5 95/78/5 96/78/5 97/78/5 
f 97/78/5 96/78/5 98/78/5 99/78/5 
f 100/78/5 99/78/5 98/78/5 101/78/5 
f 100/78/5 101/78/5 102/78/5 103/78/5 
f 29/78/5 32/78/5 97/78/5 28/78/5 
f 28/78/5 97/78/5 104/78/5 15/78/5 
f 15/78/5 104/78/5 105/78/5 106/78/5 
f 107/78/5 15/78/5 106/78/5 108/78/5 
f 15/78/5 107/78/5 109/78/5 110/78/5 
f 15/78/5 110/78/5 111/78/5 112/78/5 
f 113/78/5 15/78/5 112/78/5 114/78/5 
f 15/78/5 113/78/5 115/78/5 116/78/5 
f 15/78/5 116/78/5 117/78/5 118/78/5 
f 118/78/5 117/78/5 119/78/5 120/78/5 
f 120/78/5 119/78/5 121/78/5 
f 122/78/5 15/78/5 118/78/5 
f 120/78/10 123/78/10 124/78/10 118/78/10 
f 121/78/11 125/78/11 123/78/11 120/78/11 
f 125/78/12 121/78/12 119/78/12 126/78/12 
f 127/78/13 98/78/13 96/78/13 128/78/13 
f 128/78/14 96/78/14 95/78/14 129/78/14 
f 130/78/15 129/78/15 95/78/15 94/78/15 
f 131/78/16 130/78/16 94/78/16 92/78/16 
f 122/78/17 132/78/17 133/78/17 15/78/17 
f 118/78/4 124/78/4 132/78/4 122/78/4 
f 134/78/18 131/78/18 92/78/18 91/78/18 
f 135/106/19 126/107/19 119/107/19 117/106/19 
f 136/108/20 135/106/20 117/106/20 116/108/20 
f 137/109/21 136/108/21 116/108/21 115/109/21 
f 138/110/22 137/109/22 115/109/22 113/110/22 
f 114/111/23 139/111/23 138/110/23 113/110/23 
f 140/112/24 139/111/24 114/111/24 112/112/24 
f 141/113/25 140/112/25 112/112/25 111/113/25 
f 142/114/26 141/113/26 111/113/26 110/114/26 
f 143/115/27 142/114/27 110/114/27 109/115/27 
f 144/116/28 143/115/28 109/115/28 107/116/28 
f 108/117/4 145/117/4 144/116/4 107/116/4 
f 146/118/29 145/117/29 108/117/29 106/118/29 
f 147/119/30 146/118/30 106/118/30 105/119/30 
f 148/120/31 147/119/31 105/119/31 104/120/31 
f 97/121/4 149/121/4 148/120/4 104/120/4 
f 150/122/29 149/121/29 97/121/29 99/122/29 
f 151/123/32 150/122/32 99/122/32 100/123/32 
f 151/123/33 100/123/33 103/124/33 152/124/33 
f 152/124/34 103/124/34 102/125/34 153/125/34 
f 153/125/35 102/125/35 101/126/35 154/126/35 
f 98/127/36 127/127/36 154/126/36 101/126/36 
f 134/128/37 155/129/37 156/130/37 157/131/37 
f 131/132/37 134/128/37 157/131/37 158/133/37 
f 130/134/37 131/132/37 158/133/37 159/135/37 
f 129/136/37 130/134/37 159/135/37 160/137/37 
f 128/138/37 129/136/37 160/137/37 161/139/37 
f 128/138/37 161/139/37 149/121/37 127/127/37 
f 127/127/37 149/121/37 150/122/37 151/123/37 
f 154/126/37 127/127/37 151/123/37 152/124/37 
f 154/126/37 152/124/37 153/125/37 
f 162/140/37 149/121/37 161/139/37 163/141/37 
f 163/141/37 161/139/37 164/142/37 
f 165/143/37 149/121/37 162/140/37 166/144/37 
f 149/121/37 165/143/37 167/145/37 168/146/37 
f 169/147/37 168/146/37 167/145/37 170/148/37 
f 149/121/37 168/146/37 171/149/37 148/120/37 
f 148/120/37 171/149/37 172/150/37 147/119/37 
f 147/119/37 172/150/37 173/151/37 146/118/37 
f 144/116/37 146/118/37 173/151/37 143/115/37 
f 142/114/37 143/115/37 173/151/37 141/113/37 
f 141/113/37 173/151/37 174/152/37 175/153/37 
f 140/112/37 141/113/37 175/153/37 176/154/37 
f 139/111/37 140/112/37 176/154/37 138/110/37 
f 137/109/37 138/110/37 176/154/37 177/155/37 
f 136/108/37 137/109/37 177/155/37 178/156/37 
f 135/106/37 136/108/37 178/156/37 179/157/37 
f 126/107/37 135/106/37 179/157/37 124/158/37 
f 124/158/37 179/157/37 180/159/37 133/160/37 
f 124/158/37 133/160/37 132/161/37 
f 126/107/37 124/158/37 123/162/37 125/163/37 
f 145/117/37 146/118/37 144/116/37 
f 155/129/38 134/128/38 91/128/38 90/129/38 
f 155/78/39 90/78/39 43/78/39 156/78/39 
f 156/78/39 43/78/39 2/78/39 
f 161/78/3 32/78/3 5/78/3 164/78/3 
f 6/78/8 163/78/8 164/78/8 5/78/8 
f 29/78/40 162/78/40 163/78/40 6/78/40 
f 2/78/41 1/78/41 157/78/41 156/78/41 
f 4/78/42 158/78/42 157/78/42 1/78/42 
f 30/78/43 159/78/43 158/78/43 4/78/43 
f 31/78/44 160/78/44 159/78/44 30/78/44 
f 32/78/45 161/78/45 160/78/45 31/78/45 
f 162/78/46 29/78/46 7/78/46 166/78/46 
f 8/78/8 165/78/8 166/78/8 7/78/8 
f 28/78/47 167/78/47 165/78/47 8/78/47 
f 22/78/48 172/78/48 171/78/48 26/78/48 
f 23/78/49 173/78/49 172/78/49 22/78/49 
f 23/78/50 25/78/50 174/78/50 173/78/50 
f 24/78/51 175/78/51 174/78/51 25/78/51 
f 10/78/52 176/78/52 175/78/52 24/78/52 
f 11/78/53 177/78/53 176/78/53 10/78/53 
f 12/78/54 178/78/54 177/78/54 11/78/54 
f 13/78/55 179/78/55 178/78/55 12/78/55 
f 13/78/56 14/78/56 180/78/56 179/78/56 
f 15/78/57 133/78/57 180/78/57 14/78/57 
f 167/78/58 28/78/58 9/78/58 170/78/58 
f 21/78/8 169/78/8 170/78/8 9/78/8 
f 21/78/4 27/78/4 168/78/4 169/78/4 
f 26/78/59 171/78/59 168/78/59 27/78/59 
f 2/78/5 43/78/5 93/78/5 1/78/5 
f 1/78/5 93/78/5 32/78/5 4/78/5 
f 30/78/5 4/78/5 32/78/5 31/78/5 
f 79/78/60 42/78/60 43/78/60 93/78/60 
f 79/78/60 93/78/60 80/78/60 
f 81/78/60 16/78/60 17/78/60 82/78/60 
f 83/78/60 18/78/60 19/78/60 84/78/60 
f 51/78/60 40/78/60 41/78/60 78/78/60 
f 181/78/61 87/78/61 86/78/61 
f 181/78/62 86/78/62 182/78/62 
f 181/78/61 88/78/61 87/78/61 
f 183/78/63 88/78/63 181/78/63 
f 184/78/64 84/78/64 185/78/64 
f 184/78/65 85/78/65 84/78/65 
f 186/78/66 76/78/66 89/78/66 
f 186/78/67 89/78/67 187/78/67 
f 188/78/68 75/78/68 76/78/68 189/78/68 
f 190/78/68 45/78/68 69/78/68 191/78/68 
f 192/78/68 71/78/68 72/78/68 193/78/68 
f 194/78/68 73/78/68 74/78/68 195/78/68 
f 196/78/69 197/78/69 47/78/69 
f 197/78/70 48/78/70 47/78/70 
f 197/78/71 198/78/71 49/78/71 
f 197/78/70 49/78/70 48/78/70 
f 199/78/72 200/78/72 45/78/72 
f 200/78/73 44/78/73 45/78/73 
f 201/78/74 202/78/74 50/78/74 
f 202/78/75 51/78/75 50/78/75 
f 19/78/76 20/78/76 39/78/76 77/78/76 
f 70/78/76 77/78/76 39/78/76 46/78/76 
f 46/78/76 39/78/76 38/78/76 37/78/76 
f 57/78/76 46/78/76 37/78/76 36/78/76 
f 57/78/76 36/78/76 40/78/76 41/78/76 
f 57/78/76 41/78/76 42/78/76 43/78/76 
f 57/78/76 43/78/76 93/78/76 32/78/76 
f 57/78/76 32/78/76 29/78/76 28/78/76 
f 57/78/76 28/78/76 15/78/76 16/78/76 
f 57/78/76 16/78/76 17/78/76 77/78/76 
f 77/78/76 17/78/76 18/78/76 19/78/76 
# 172 polygons - 33 triangles

