# 3ds Max Wavefront OBJ Exporter v0.97b - (c)2007 guruware
# File Created: 06.11.2015 00:33:46

mtllib 3d-model.mtl

#
# object Buielding_001
#

v  -6738.8755 2706.7705 3194.7832
v  -1723.0015 2706.7705 12975.7373
v  2199.8445 3333.7485 10964.0215
v  -2816.0288 3333.7485 1183.0664
v  -1723.0005 -0.0039 12975.7373
v  2199.8462 -0.0010 10964.0215
v  -39.4902 2706.7705 16258.5840
v  3883.3557 3333.7485 14246.8682
v  -6738.8735 -0.0039 3194.7832
v  -2816.0269 -0.0010 1183.0664
v  -7191.6274 2706.7705 2311.9180
v  -3268.7808 3333.7485 300.2012
v  4938.0054 3333.7461 25964.7012
v  4938.0068 -0.0039 25964.7012
v  8860.8535 -0.0010 23952.9844
v  8860.8516 3333.7485 23952.9844
v  -39.4907 3333.7461 16258.5840
v  4355.9395 2706.7710 23827.7363
v  3949.1162 -0.0039 24036.3633
v  3949.1147 3333.7461 24036.3652
v  7871.9609 3333.7485 22024.6484
v  4355.9409 -0.0039 23827.7363
v  2103.9692 3333.7461 20438.3320
v  2103.9709 -0.0039 20438.3301
v  -39.4893 -0.0039 16258.5840
v  2420.3516 9818.6895 -2898.9297
v  2757.6895 9818.6895 -2790.2969
v  207.6641 9818.6895 -7762.8438
v  99.0303 9818.6895 -7425.5078
v  -6086.1948 9818.6855 -4535.2246
v  -5654.2144 9818.6865 -4475.1250
v  -3332.8940 9818.6865 51.4512
v  -3536.1694 9818.6855 437.3242
v  16588.0371 4572.0034 19708.6992
v  8860.8516 4571.9985 23952.9844
v  16925.3750 4572.0039 19817.3320
v  4795.7432 4572.0039 -3835.4512
v  4687.1074 4572.0034 -3498.1152
v  -3268.7817 4571.9985 300.2012
v  -2931.4458 4571.9985 408.8340
v  8969.4854 4571.9985 23615.6484
v  -3884.8071 7370.3760 334.4844
v  -7191.6294 7370.3740 2311.9199
v  -3536.1685 7370.3760 437.3242
v  -6086.1938 7370.3760 -4535.2246
v  -6206.1294 7370.3760 -4192.0918
v  -9404.3184 7370.3740 -2551.9941
v  -9741.6543 7370.3740 -2660.6289
v  -7082.9966 7370.3740 1974.5820
v  5736.7925 7370.3818 -4599.6680
v  6074.1313 7370.3823 -4491.0352
v  3524.1060 7370.3823 -9463.5820
v  3415.4709 7370.3818 -9126.2461
v  545.0034 7370.3804 -7654.2109
v  207.6655 7370.3799 -7762.8438
v  2866.3245 7370.3804 -3127.6348
v  2757.6907 7370.3799 -2790.2969
v  8969.4854 4292.5986 23615.6484
v  16588.0371 4292.6035 19708.6973
v  4687.1074 4292.6035 -3498.1152
v  -2931.4458 4292.5986 408.8340
v  5046.6392 3333.7461 25627.3633
v  8746.5000 3333.7485 23730.0000
v  4286.4521 3333.7461 24144.9980
v  7986.3130 3333.7485 22247.6348
v  6026.8154 3333.7485 18426.6133
v  5912.4639 3333.7485 18203.6289
v  2212.6033 3333.7461 20100.9941
v  297.8467 3333.7461 16367.2188
v  3997.7078 3333.7485 14469.8545
v  5046.6396 3054.3462 25627.3633
v  8746.5000 3054.3486 23730.0000
v  7986.3130 3054.3486 22247.6348
v  4286.4521 3054.3462 24144.9980
v  297.8467 3054.3462 16367.2188
v  2212.6033 3054.3462 20100.9941
v  5912.4644 3054.3486 18203.6289
v  3997.7080 3054.3486 14469.8545
v  -7082.9966 7090.9736 1974.5820
v  -3884.8071 7090.9761 334.4844
v  -6206.1294 7090.9761 -4192.0918
v  -9404.3184 7090.9736 -2551.9941
v  -3332.8940 9539.2861 51.4512
v  2420.3518 9539.2900 -2898.9297
v  99.0308 9539.2900 -7425.5078
v  -5654.2144 9539.2861 -4475.1250
v  2866.3247 7090.9805 -3127.6348
v  5736.7925 7090.9819 -4599.6680
v  3415.4712 7090.9819 -9126.2461
v  545.0034 7090.9805 -7654.2109
v  82.6064 4572.0034 -12476.8906
v  305.5928 4572.0039 -12591.2422
v  -4894.3589 4572.0039 -22731.1484
v  -5002.9956 4572.0034 -22393.8125
v  -16881.7305 4571.9961 -16583.7773
v  -16544.3945 4571.9961 -16475.1445
v  -11681.7793 4571.9961 -6443.8711
v  -11458.7930 4571.9961 -6558.2227
v  1908.3796 4572.0034 -8916.6328
v  -9741.6543 4571.9961 -2660.6309
v  2245.7175 4572.0039 -8808.0000
v  -9633.0195 4571.9961 -2997.9688
v  -16544.3945 4292.5962 -16475.1445
v  -11458.7930 4292.5962 -6558.2227
v  82.6064 4292.6035 -12476.8906
v  -5002.9956 4292.6035 -22393.8125
v  -9633.0195 4292.5962 -2997.9688
v  1908.3799 4292.6035 -8916.6328
v  -13686.4609 3198.8105 -18222.3750
v  -9025.3379 3198.8135 -20612.6953
v  -10347.3730 3198.8135 -23190.6641
v  -15008.4961 3198.8105 -20800.3438
v  305.5947 0.0039 -12591.2461
v  -4894.3560 0.0039 -22731.1523
v  16925.3789 0.0039 19817.3301
v  4795.7451 0.0039 -3835.4512
v  -11681.7773 -0.0039 -6443.8750
v  -9741.6504 -0.0039 -2660.6309
v  -7191.6255 -0.0039 2311.9180
v  -7191.6284 4571.9961 2311.9180
v  3524.1094 0.0049 -9463.5859
v  3524.1074 4055.0806 -9463.5820
v  6074.1328 4055.0806 -4491.0371
v  6074.1348 0.0049 -4491.0371
v  2245.7200 0.0039 -8808.0039
v  3524.1072 4572.0044 -9463.5820
v  2510.7939 2706.7710 20229.7031
v  2510.7954 -0.0039 20229.7031
v  6074.1328 4572.0044 -4491.0371
v  -15008.4961 -0.0020 -20800.3477
v  -10347.3711 0.0010 -23190.6680
v  -13686.4609 -0.0020 -18222.3789
v  -16881.7285 -0.0039 -16583.7813
v  -9025.3359 0.0010 -20612.6992
# 134 vertices

vn -0.1253 0.9900 0.0642
vn -0.4563 -0.0000 -0.8898
vn 0.4563 0.0000 0.8898
vn -0.8898 -0.0000 0.4563
vn -0.0000 1.0000 0.0000
vn 0.8898 0.0000 -0.4563
vn -0.1394 0.9876 0.0715
# 7 vertex normals

vt 0.0000 0.0000 0.0000
vt 0.9997 0.0006 0.0000
vt 0.9997 0.9990 0.0000
vt 0.0003 0.9990 0.0000
vt 0.9973 0.0029 0.0000
vt 0.9973 0.8102 0.0000
vt 0.0022 0.9972 0.0000
vt 0.0022 0.0029 0.0000
vt 0.9991 0.0006 0.0000
vt 0.9991 0.9994 0.0000
vt 0.0008 0.9994 0.0000
vt 0.0030 0.8096 0.0000
vt 0.0030 0.0038 0.0000
vt 0.9975 0.0038 0.0000
vt 0.9975 0.9963 0.0000
vt 0.0028 0.0006 0.0000
vt 0.9965 0.0006 0.0000
vt 0.9965 0.9994 0.0000
vt 0.0028 0.9994 0.0000
vt 0.0006 0.9991 0.0000
vt 0.9994 0.0007 0.0000
vt 0.9994 0.9991 0.0000
vt 1.0074 0.9505 0.0000
vt 0.0066 0.9505 0.0000
vt 0.0066 0.0423 0.0000
vt 1.0074 0.0423 0.0000
vt 0.0019 0.9980 0.0000
vt 0.9985 0.8107 0.0000
vt 0.9985 0.9980 0.0000
vt 0.8951 0.8107 0.0000
vt 0.9985 0.0018 0.0000
vt 0.8951 0.0018 0.0000
vt 0.9983 0.9950 0.0000
vt 0.0070 0.9950 0.0000
vt 0.0070 -0.0050 0.0000
vt 0.9983 -0.0050 0.0000
vt 1.9681 0.9984 0.0000
vt 0.8391 0.9984 0.0000
vt 0.8391 0.8103 0.0000
vt 1.9681 -0.0016 0.0000
vt 0.8391 -0.0016 0.0000
vt 0.4488 0.4892 0.0000
vt 0.4534 0.4883 0.0000
vt 0.4195 0.5278 0.0000
vt 0.4180 0.5252 0.0000
vt 0.3329 0.5031 0.0000
vt 0.3388 0.5025 0.0000
vt 0.3696 0.4666 0.0000
vt 0.3668 0.4636 0.0000
vt 0.6458 0.3001 0.0000
vt 0.5395 0.2675 0.0000
vt 0.6504 0.2992 0.0000
vt 0.4894 0.4870 0.0000
vt 0.4879 0.4843 0.0000
vt 0.3785 0.4553 0.0000
vt 0.3831 0.4544 0.0000
vt 0.5410 0.2701 0.0000
vt 0.3621 0.4644 0.0000
vt 0.3165 0.4492 0.0000
vt 0.3312 0.5004 0.0000
vt 0.2872 0.4878 0.0000
vt 0.2827 0.4887 0.0000
vt 0.3181 0.4519 0.0000
vt 0.4944 0.5022 0.0000
vt 0.4990 0.5013 0.0000
vt 0.4652 0.5408 0.0000
vt 0.4636 0.5382 0.0000
vt 0.4241 0.5269 0.0000
vt 0.4549 0.4910 0.0000
vt 0.4871 0.2547 0.0000
vt 0.4724 0.2674 0.0000
vt 0.4855 0.2521 0.0000
vt 0.5379 0.2693 0.0000
vt 0.4770 0.2665 0.0000
vt 0.5279 0.2810 0.0000
vt 0.5263 0.2828 0.0000
vt 0.5019 0.3114 0.0000
vt 0.5003 0.3131 0.0000
vt 0.4494 0.2986 0.0000
vt 0.4479 0.2960 0.0000
vt 0.4194 0.3292 0.0000
vt 0.4240 0.3283 0.0000
vt 0.4734 0.3446 0.0000
vt 0.4749 0.3428 0.0000
vt 0.3575 0.4631 0.0000
vt 0.3267 0.4991 0.0000
vt 0.3329 0.5008 0.0000
vt 0.3637 0.4649 0.0000
vt 0.4267 0.5556 0.0000
vt 0.4298 0.5565 0.0000
vt 0.3608 0.6370 0.0000
vt 0.3592 0.6344 0.0000
vt 0.1959 0.5899 0.0000
vt 0.2005 0.5890 0.0000
vt 0.2649 0.5094 0.0000
vt 0.2680 0.5103 0.0000
vt 0.4510 0.5274 0.0000
vt 0.2907 0.4794 0.0000
vt 0.4556 0.5265 0.0000
vt 0.2922 0.4820 0.0000
vt 0.2398 0.6025 0.0000
vt 0.3040 0.6208 0.0000
vt 0.2864 0.6413 0.0000
vt 0.2223 0.6230 0.0000
vt 0.9993 0.9978 0.0000
vt 0.0007 0.9978 0.0000
vt 0.0007 0.0017 0.0000
vt 0.9993 0.0017 0.0000
vt -2.9909 4.0072 0.0000
vt -3.9957 4.0072 0.0000
vt -3.9957 3.0072 0.0000
vt -2.9909 3.0072 0.0000
vt 0.9994 0.9961 0.0000
vt 0.0006 0.9961 0.0000
vt 0.0006 0.0033 0.0000
vt 0.9994 0.0033 0.0000
vt 0.0006 0.7288 0.0000
vt 0.9995 0.0009 0.0000
vt 0.0006 0.9992 0.0000
vt 0.9995 0.9992 0.0000
vt 0.7568 0.1870 0.0000
vt 0.5990 0.1870 0.0000
vt 0.5990 0.0041 0.0000
vt 0.7568 0.0041 0.0000
vt 0.9998 0.1870 0.0000
vt 0.5896 0.1870 0.0000
vt 0.4509 0.1870 0.0000
vt 0.0375 0.1870 0.0000
vt 0.0002 0.1870 0.0000
vt 0.9998 0.9972 0.0000
vt 0.0002 0.9972 0.0000
vt 0.7662 0.1870 0.0000
vt 0.9183 0.1870 0.0000
vt 0.9277 0.1870 0.0000
vt 0.9903 0.1870 0.0000
vt 0.9277 0.0041 0.0000
vt 0.9903 0.0041 0.0000
vt 1.0200 1.0050 0.0000
vt 0.0036 1.0050 0.0000
vt 0.0036 0.0050 0.0000
vt 1.0200 0.0050 0.0000
vt 0.9940 0.9973 0.0000
vt 0.0063 0.9973 0.0000
vt 0.0063 0.0023 0.0000
vt 0.9940 0.0023 0.0000
vt 0.9987 0.9975 0.0000
vt 0.0016 0.9975 0.0000
vt 0.0016 0.0036 0.0000
vt 0.9987 0.0036 0.0000
vt 1.9982 4.9965 0.0000
vt 1.0000 5.0000 0.0000
vt 1.0007 4.6216 0.0000
vt 1.9989 4.6182 0.0000
vt 1.0018 4.0035 0.0000
vt 1.9994 4.3660 0.0000
vt 2.0000 4.0000 0.0000
vt 1.1017 -0.2231 0.0000
vt 1.1017 1.0000 0.0000
vt -0.0000 1.0000 0.0000
vt -0.0000 -0.2231 0.0000
vt 0.0020 0.9964 0.0000
vt 0.0020 0.0050 0.0000
vt 0.9982 0.3382 0.0000
vt 0.9982 0.9964 0.0000
vt 0.9937 0.0019 0.0000
vt 0.9937 0.9981 0.0000
vt 0.0085 0.9981 0.0000
vt 0.0085 0.0019 0.0000
vt 0.0085 0.8854 0.0000
vt 1.0029 0.9871 0.0000
vt 0.0000 1.0000 0.0000
vt -0.0029 0.0129 0.0000
vt 1.0000 -0.0000 0.0000
vt 0.9995 0.0007 0.0000
vt 0.9995 0.9993 0.0000
vt 0.0007 0.9993 0.0000
vt 0.0011 0.9988 0.0000
vt 0.0011 0.0015 0.0000
vt 0.1045 0.0015 0.0000
vt 0.1045 0.8112 0.0000
vt 0.9980 0.9988 0.0000
vt 0.9863 0.9994 0.0000
vt 0.0007 0.9994 0.0000
vt 0.9863 0.0006 0.0000
vt 0.0192 0.9375 0.0000
vt 0.0192 0.9984 0.0000
vt 0.0006 0.9984 0.0000
vt 0.0006 0.0019 0.0000
vt 0.9808 0.9375 0.0000
vt 0.9994 0.0019 0.0000
vt 0.9808 0.9984 0.0000
vt 0.9994 0.9984 0.0000
vt 0.9994 0.1566 0.0000
vt 0.9994 0.9990 0.0000
vt 0.0006 0.9990 0.0000
vt 0.0006 0.1566 0.0000
vt 0.9994 0.0010 0.0000
vt 0.7239 0.5331 0.0000
vt 0.7239 0.9946 0.0000
vt 0.2508 0.9946 0.0000
vt 0.2508 0.5331 0.0000
vt 0.0975 0.0057 0.0000
vt 0.9987 0.0057 0.0000
vt 0.9987 0.5331 0.0000
vt 0.0014 0.5331 0.0000
vt 0.0014 0.0057 0.0000
vt -0.2793 1.4616 0.0000
vt -0.7080 0.9982 0.0000
vt -0.1343 0.9982 0.0000
vt -0.0434 1.4616 0.0000
vt -0.0434 0.9982 0.0000
vt -0.2793 1.8670 0.0000
vt -0.7270 1.8670 0.0000
vt -0.7270 1.4616 0.0000
vt -0.9870 1.4616 0.0000
vt -0.9870 0.9982 0.0000
vt 0.9912 0.8854 0.0000
vt 0.9912 0.9980 0.0000
vt 0.0060 0.9980 0.0000
vt 0.9912 0.0019 0.0000
vt 0.0060 0.0019 0.0000
vt 0.7332 0.0018 0.0000
vt 0.7332 0.6993 0.0000
vt 0.3448 0.6993 0.0000
vt 0.3448 0.0018 0.0000
vt -1.5799 0.6993 0.0000
vt -1.7947 0.6993 0.0000
vt -1.7947 0.0018 0.0000
vt -1.5799 0.0018 0.0000
vt 0.9994 0.0018 0.0000
vt 0.9994 0.9987 0.0000
vt 0.0006 0.9987 0.0000
vt 0.0006 0.0018 0.0000
vt 1.0000 0.9981 0.0000
vt -0.0000 0.9981 0.0000
vt 1.0000 0.0000 0.0000
vt 1.0004 1.0000 0.0000
vt 1.0004 0.0000 0.0000
# 238 texture coords

g Buielding_001
usemtl wire_134110008
s off
f 1/1/1 2/2/1 3/3/1 4/4/1 
f 5/5/2 2/6/2 3/7/2 6/8/2 
f 7/9/1 8/10/1 3/11/1 2/1/1 
f 1/12/3 9/13/3 10/14/3 4/15/3 
f 11/16/1 1/17/1 4/18/1 12/19/1 
f 13/20/3 14/1/3 15/21/3 16/22/3 
f 3/23/4 4/24/4 10/25/4 6/26/4 
f 8/27/2 7/28/2 17/29/2 
f 18/30/2 19/31/2 20/29/2 21/27/2 
f 22/32/2 19/31/2 18/30/2 
f 13/33/4 20/34/4 19/35/4 14/36/4 
f 23/37/4 17/38/4 7/39/4 24/40/4 
f 24/40/4 7/39/4 25/41/4 
f 26/42/5 27/43/5 28/44/5 29/45/5 
f 29/45/5 28/44/5 30/46/5 31/47/5 
f 32/48/5 31/47/5 30/46/5 33/49/5 
f 32/48/5 33/49/5 27/43/5 26/42/5 
f 34/50/5 35/51/5 36/52/5 37/53/5 
f 38/54/5 34/50/5 37/53/5 39/55/5 
f 40/56/5 38/54/5 39/55/5 41/57/5 
f 41/57/5 39/55/5 35/51/5 34/50/5 
f 42/58/5 43/59/5 44/49/5 45/46/5 
f 46/60/5 42/58/5 45/46/5 47/61/5 
f 47/61/5 45/46/5 48/62/5 49/63/5 
f 49/63/5 48/62/5 43/59/5 42/58/5 
f 50/64/5 51/65/5 52/66/5 53/67/5 
f 54/68/5 53/67/5 52/66/5 55/44/5 
f 56/69/5 54/68/5 55/44/5 57/43/5 
f 56/69/5 57/43/5 51/65/5 50/64/5 
f 58/57/5 59/50/5 60/54/5 61/56/5 
f 58/57/2 41/57/2 34/50/2 59/50/2 
f 34/50/4 38/54/4 60/54/4 59/50/4 
f 40/56/3 61/56/3 60/54/3 38/54/3 
f 40/56/6 41/57/6 58/57/6 61/56/6 
f 62/70/5 20/71/5 13/72/5 16/51/5 
f 62/70/5 16/51/5 63/73/5 
f 20/71/5 62/70/5 64/74/5 65/75/5 
f 20/71/5 65/75/5 21/76/5 
f 66/77/5 67/78/5 68/79/5 23/80/5 
f 17/81/5 23/80/5 68/79/5 69/82/5 
f 8/83/5 17/81/5 69/82/5 70/84/5 
f 71/70/5 72/73/5 73/75/5 74/74/5 
f 64/74/3 74/74/3 73/75/3 65/75/3 
f 64/74/6 62/70/6 71/70/6 74/74/6 
f 71/70/2 62/70/2 63/73/2 72/73/2 
f 75/82/5 76/79/5 77/78/5 78/84/5 
f 69/82/3 75/82/3 78/84/3 70/84/3 
f 69/82/6 68/79/6 76/79/6 75/82/6 
f 76/79/2 68/79/2 67/78/2 77/78/2 
f 79/63/5 80/58/5 81/60/5 82/61/5 
f 79/63/2 49/63/2 42/58/2 80/58/2 
f 42/85/4 46/86/4 81/86/4 80/85/4 
f 47/61/3 82/61/3 81/60/3 46/60/3 
f 82/61/6 47/61/6 49/63/6 79/63/6 
f 83/48/5 84/42/5 85/45/5 86/47/5 
f 26/42/4 29/45/4 85/45/4 84/42/4 
f 31/47/3 86/47/3 85/45/3 29/45/3 
f 86/87/6 31/87/6 32/88/6 83/88/6 
f 83/48/2 32/48/2 26/42/2 84/42/2 
f 87/69/5 88/64/5 89/67/5 90/68/5 
f 50/64/4 53/67/4 89/67/4 88/64/4 
f 54/68/3 90/68/3 89/67/3 53/67/3 
f 90/68/6 54/68/6 56/69/6 87/69/6 
f 87/69/2 56/69/2 50/64/2 88/64/2 
f 91/89/5 92/90/5 93/91/5 94/92/5 
f 94/92/5 93/91/5 95/93/5 96/94/5 
f 96/94/5 95/93/5 97/95/5 98/96/5 
f 99/97/5 100/98/5 101/99/5 92/90/5 
f 99/97/5 92/90/5 91/89/5 
f 100/98/5 99/97/5 102/100/5 97/95/5 
f 97/95/5 102/100/5 98/96/5 
f 103/94/5 104/96/5 105/89/5 106/92/5 
f 91/89/4 94/92/4 106/92/4 105/89/4 
f 96/94/3 103/94/3 106/92/3 94/92/3 
f 96/94/6 98/96/6 104/96/6 103/94/6 
f 107/100/5 108/97/5 105/89/5 104/96/5 
f 98/96/6 102/100/6 107/100/6 104/96/6 
f 107/100/2 102/100/2 99/97/2 108/97/2 
f 99/97/4 91/89/4 105/89/4 108/97/4 
f 109/101/5 110/102/5 111/103/5 112/104/5 
f 93/105/6 92/106/6 113/107/6 114/108/6 
f 7/109/4 2/110/4 5/111/4 25/112/4 
f 37/113/6 36/114/6 115/115/6 116/116/6 
f 16/117/3 15/1/3 115/118/3 35/119/3 
f 35/119/3 115/118/3 36/120/3 
f 67/121/4 70/122/4 78/123/4 77/124/4 
f 70/122/4 67/121/4 16/125/4 8/126/4 
f 3/127/4 8/126/4 16/125/4 4/128/4 
f 12/129/4 4/128/4 16/125/4 35/130/4 
f 12/129/4 35/130/4 39/131/4 
f 16/125/4 67/121/4 66/132/4 21/133/4 
f 16/125/4 21/133/4 65/134/4 63/135/4 
f 63/135/4 65/134/4 73/136/4 72/137/4 
f 100/138/4 97/139/4 117/140/4 118/141/4 
f 1/142/4 11/143/4 119/144/4 9/145/4 
f 33/146/4 30/147/4 45/148/4 44/149/4 
f 55/149/6 28/146/6 27/147/6 57/148/6 
f 43/150/4 48/151/4 100/152/4 120/153/4 
f 120/153/4 100/152/4 118/154/4 11/155/4 
f 11/155/4 118/154/4 119/156/4 
f 121/157/6 122/158/6 123/159/6 124/160/6 
f 120/161/3 11/162/3 12/163/3 39/164/3 
f 125/165/2 101/166/2 126/167/2 121/168/2 
f 121/168/2 126/167/2 122/169/2 
f 18/170/4 127/171/4 128/172/4 22/173/4 
f 18/174/7 21/175/7 66/176/7 127/1/7 
f 23/177/3 24/178/3 128/179/3 127/180/3 
f 23/177/3 127/180/3 66/181/3 
f 92/182/6 101/183/6 125/1/6 113/184/6 
f 105/185/2 91/186/2 92/187/2 113/188/2 
f 104/189/2 105/185/2 113/188/2 117/190/2 
f 98/191/2 104/189/2 117/190/2 97/192/2 
f 126/193/6 52/194/6 51/195/6 129/196/6 
f 126/193/6 129/196/6 123/1/6 122/197/6 
f 45/198/2 30/199/2 28/200/2 55/201/2 
f 45/198/2 55/201/2 101/202/2 100/203/2 
f 45/198/2 100/203/2 48/204/2 
f 101/202/2 55/201/2 52/205/2 126/206/2 
f 57/207/3 39/208/3 37/209/3 51/210/3 
f 51/210/3 37/209/3 129/211/3 
f 39/208/3 57/207/3 27/212/3 33/213/3 
f 39/208/3 33/213/3 44/214/3 43/215/3 
f 39/208/3 43/215/3 120/216/3 
f 123/217/3 129/218/3 37/219/3 124/220/3 
f 124/220/3 37/219/3 116/221/3 
f 130/222/2 112/223/2 111/224/2 131/225/2 
f 109/226/4 112/227/4 130/228/4 132/229/4 
f 109/223/2 133/230/2 95/231/2 93/232/2 
f 110/224/2 109/223/2 93/232/2 134/225/2 
f 134/225/2 93/232/2 114/233/2 
f 132/222/2 133/230/2 109/223/2 
f 132/222/2 109/223/2 110/224/2 134/225/2 
f 111/234/6 110/235/6 134/1/6 131/236/6 
f 97/237/4 95/171/4 133/1/4 117/238/4 
# 116 polygons - 18 triangles

