# File produced by Open Asset Import Library (http://www.assimp.sf.net)
# (assimp v3.1.187496374)

mtllib House N300508.obj.mtl

# 66 vertex positions
v  -5.20666 -35 -18.2652
v  -5.20666 -18.5 -18.2652
v  4.29789 -35 -18.2652
v  4.29789 -18.5 -18.2652
v  -24.1723 -7.50001 -18.2652
v  -24.1723 0.999992 -18.2652
v  -14.6677 -7.50001 -18.2652
v  -14.6677 0.999992 -18.2652
v  -24.1723 -27.5 -18.2652
v  -24.1723 -16.5 -18.2652
v  -14.6677 -27.5 -18.2652
v  -14.6677 -16.5 -18.2652
v  32.5 27.5 -0.265171
v  32.5 8.93845 -20.948
v  32.5 29.6213 -0.265168
v  32.5 7.34746 19.8874
v  32.5 7.87779 -19.8874
v  32.5 8.40812 20.948
v  -32.5 8.93845 -20.948
v  -32.5 29.6213 -0.265168
v  32.5 8.93845 -20.948
v  -32.5 27.5 -0.265171
v  -32.5 8.40812 20.948
v  -32.5 7.87779 -19.8874
v  -32.5 7.34746 19.8874
v  -1.75 21.1213 8.23483
v  -1.75 24.6213 4.73483
v  -32.5 29.6213 -0.265171
v  1.75 24.6213 4.73483
v  32.5 8.40812 20.948
v  1.75 21.1213 8.23483
v  -30 10 -17.7652
v  30 10 -17.7652
v  -30 27.5 -0.265168
v  30 27.5 -0.265171
v  30 10 17.2348
v  -32.5 7.34746 19.8874
v  -30 10 17.2348
v  -30 27.5 -0.265171
v  -32.5 8.93845 -20.948
v  32.5 7.34746 19.8874
v  1.75 35 8.23483
v  -1.75 35 8.23483
v  1.75 35 4.73483
v  1.75 35 8.23483
v  1.75 24.6213 4.73483
v  1.75 21.1213 8.23483
v  1.75 35 4.73483
v  -1.75 35 4.73483
v  1.75 24.6213 4.73483
v  -1.75 24.6213 4.73483
v  -1.75 35 4.73483
v  -1.75 21.1213 8.23483
v  -30 -35 17.2348
v  -30 -35 -17.7652
v  -30 9.99999 17.2348
v  -30 9.99999 -17.7652
v  30 9.99999 -17.7652
v  30 27.5 -0.265168
v  30 -35 17.2348
v  30 -35 -17.7652
v  30 9.99999 17.2348
v  -30 -35 -17.7652
v  30 10 -17.7652
v  30 -35 -17.7652
v  -30 10 -17.7652

# 107 UV coordinates
vt -381.933 1 0
vt -381.933 166 0
vt -476.979 1 0
vt -476.979 166 0
vt -192.277 276 0
vt -192.277 361 0
vt -287.323 276 0
vt -287.323 361 0
vt -192.277 76 0
vt -192.277 186 0
vt -287.323 76 0
vt -287.323 186 0
vt -184 626 0
vt 22.8287 440.385 0
vt -184 647.213 0
vt -385.525 424.475 0
vt 12.2221 429.778 0
vt -396.132 435.081 0
vt -759 647.213 0
vt -109 440.385 0
vt -109 647.213 0
vt -759 440.385 0
vt 186 647.213 0
vt -20.8287 440.385 0
vt 186 626 0
vt 398.132 435.081 0
vt -10.2221 429.778 0
vt 387.525 424.475 0
vt 418.5 -269 0
vt 418.5 -234 0
vt 111 -184 0
vt 418.5 597.213 0
vt 761 647.213 0
vt 111 647.213 0
vt 453.5 597.213 0
vt 761 435.081 0
vt 418.5 562.213 0
vt 111 435.081 0
vt 453.5 562.213 0
vt 453.5 -234 0
vt 453.5 -269 0
vt 761 -396.132 0
vt -134 -9.00001 0
vt -759 12.2221 0
vt -734 -8.99999 0
vt 136 451 0
vt 111 429.778 0
vt 761 429.778 0
vt 136 626 0
vt 736 626 0
vt 736 451 0
vt 761 626 0
vt -134 -184 0
vt -109 -184 0
vt -109 12.2221 0
vt -734 451 0
vt -109 424.475 0
vt -134 451 0
vt -759 424.475 0
vt -109 626 0
vt -134 626 0
vt -734 626 0
vt -759 626 0
vt -734 -359 0
vt -734 -184 0
vt -759 -385.525 0
vt -109 -385.525 0
vt -134 -184 0
vt -134 -359 0
vt -109 440.385 0
vt -759 429.778 0
vt -109 429.778 0
vt 111 424.475 0
vt 761 424.475 0
vt 453.5 701 0
vt 418.5 701 0
vt -234 701 0
vt -269 701 0
vt -234 597.213 0
vt -269 562.213 0
vt 418.5 -269 0
vt 453.5 -234 0
vt -451.5 701 0
vt -451.5 597.213 0
vt -416.5 597.213 0
vt -416.5 701 0
vt 236 701 0
vt 236 597.213 0
vt 271 562.213 0
vt 271 701 0
vt 361 1 0
vt 11 1 0
vt 361 451 0
vt 11 451 0
vt -9 451 0
vt -184 626 0
vt -359 1 0
vt -9 1 0
vt -359 451 0
vt 736 1 0
vt 736 451 0
vt 136 1 0
vt 136 451 0
vt -134 1 0
vt -734 1 0
vt -134 -9 0
vt -734 -9.00001 0

# 31 vertex normals
vn 0 -1.03316e-09 -0.01
vn 0.0079026 -0.00612717 -8.16952e-05
vn 0.000448661 0.0066929 -0.00741646
vn 0.000324475 0.00908057 -0.00417588
vn 0.00219857 -0.00840563 -0.00495093
vn 0.000764819 -0.00911294 0.0040459
vn 0.000139104 0.00663129 0.00748376
vn -0.000224501 0.00669796 -0.00742206
vn -0.000268842 0.0098482 0.00171484
vn -0.00867281 -0.00497774 -6.63695e-05
vn -0.000448986 0.00670237 0.00740788
vn -0.00121315 -0.0087344 0.00471578
vn -0.000674008 -0.00888564 -0.00453775
vn -0.00193491 0.0057415 0.00795559
vn -0.000617176 0.00764773 0.00641338
vn 0.000787996 0.00721564 0.00687849
vn 0.00189396 0.00593123 0.00782518
vn -0.00310502 -0.00121845 -0.00942731
vn 0.00494315 -0.000284265 -0.00868818
vn -0.00998768 -0.000496229 -3.51942e-06
vn 0.00996368 -0.000851465 -6.03886e-06
vn 0.00154416 -0.000735937 0.00985261
vn -0.00299865 -0.000772612 0.00950848
vn 0.00655093 0.000945209 0.00749613
vn -0.00666018 0.0033592 0.00666017
vn 0.00428161 0.00288777 -0.00856321
vn -0.00911399 0.00131502 -0.00389948
vn -0.00456771 -0.00322426 0.00829097
vn -0.00398797 -0.00563008 -0.00723867
vn 0.00601816 -0.00671794 0.00431868
vn 0.00418247 -0.00557663 -0.00716995

# Mesh 'Layer_0_0' with 62 faces
g Layer_0_0
usemtl Material
f  1/1/1 2/2/1 3/3/1
f  3/3/1 2/2/1 4/4/1
f  5/5/1 6/6/1 7/7/1
f  7/7/1 6/6/1 8/8/1
f  9/9/1 10/10/1 11/11/1
f  11/11/1 10/10/1 12/12/1
f  13/13/2 14/14/3 15/15/4
f  15/15/4 16/16/5 13/13/2
f  13/13/2 17/17/6 14/14/3
f  15/15/4 18/18/7 16/16/5
f  15/19/4 19/20/8 20/21/9
f  15/19/4 21/22/3 19/20/8
f  20/23/9 19/24/8 22/25/10
f  22/25/10 23/26/11 20/23/9
f  19/24/8 24/27/12 22/25/10
f  22/25/10 25/28/13 23/26/11
f  26/29/14 27/30/15 28/31/9
f  27/32/15 15/33/4 28/34/9
f  27/32/15 29/35/16 15/33/4
f  29/35/16 30/36/7 15/33/4
f  28/34/9 30/36/7 26/37/14
f  28/34/9 23/38/11 30/36/7
f  31/39/17 26/37/14 30/36/7
f  29/40/16 31/41/17 30/42/7
f  32/43/18 17/44/6 33/45/19
f  32/46/18 24/47/12 17/48/6
f  32/46/18 34/49/20 24/47/12
f  17/48/6 35/50/21 33/51/19
f  17/48/6 13/52/2 35/50/21
f  34/53/20 22/54/10 24/55/12
f  36/56/22 37/57/13 38/58/23
f  36/56/22 16/59/5 37/57/13
f  37/57/13 22/60/10 39/61/20
f  35/62/21 13/63/2 16/59/5
f  36/64/22 35/65/21 16/66/5
f  37/67/13 39/68/20 38/69/23
f  40/70/8 17/71/6 24/72/12
f  40/70/8 21/22/3 17/71/6
f  30/36/7 23/38/11 25/73/13
f  25/73/13 41/74/5 30/36/7
f  26/37/14 31/39/17 42/75/24
f  42/75/24 43/76/25 26/37/14
f  44/77/26 45/78/24 46/79/16
f  45/78/24 47/80/17 46/79/16
f  43/81/25 48/82/26 49/30/27
f  43/81/25 42/41/24 48/82/26
f  48/83/26 50/84/16 51/85/15
f  51/85/15 52/86/27 48/83/26
f  49/87/27 51/88/15 53/89/14
f  53/89/14 43/90/25 49/87/27
f  54/91/28 39/25/20 55/92/29
f  54/91/28 56/93/23 39/25/20
f  39/25/20 57/94/18 55/92/29
f  58/95/19 59/96/21 60/97/30
f  60/97/30 61/98/31 58/95/19
f  59/96/21 62/99/22 60/97/30
f  60/100/30 62/101/22 54/102/28
f  62/101/22 56/103/23 54/102/28
f  63/104/29 64/56/19 65/105/31
f  63/104/29 66/58/18 64/56/19
f  55/106/29 65/107/31 60/64/30
f  60/64/30 54/69/28 55/106/29

